<svg xmlns="http://www.w3.org/2000/svg" width="118" height="37">
    <path fill-rule="evenodd" fill="#FFF" d="m117.385 30-.155 4.386c-2.39 1.72-4.545 2.601-6.662 2.601-3.135 0-5.125-1.439-5.802-3.514-1.778 2.117-4.023 3.514-7.241 3.514-1.715 0-4.354-1.175-5.637-3.061-1.048 1.031-5.058 3.594-10.665 3.061-2.333-.041-4.233-1.439-5.802-3.514-1.778 2.075-3.938 3.514-7.241 3.514-2.403 0-4.292-1.133-5.574-2.757-5.075 2.143-8.194 2.757-10.262 2.757-3.218 0-5.124-1.313-5.844-3.218-2.329 2.16-4.785 3.218-7.58 3.218-3.184 0-5.466-1.667-6.3-4.221-4.799 2.544-9.181 4.031-14.858 4.221C7.724 37.323.982 31.396.982 21.42.982 8.927 9.309.573 21.681.709 27.702.775 31.87 2.76 33.723 4.17l-3.352 7.478c-1.502-.726-3.901-1.236-6.705-1.236-6.109 0-9.092 3.965-9.262 9.088-.177 5.293 3.094 8.798 7.939 9.263 4.789.459 8.21-.643 10.303-1.564l1.87-13.206h10.248l-1.821 12.832c-.169 1.143.551 2.074 1.609 2.074 1.016 0 1.991-.931 2.16-2.074l1.821-12.832H58.78l-1.99 14.271c-.242 1.936.369 3.726 4.106 1.322-.134-.801-.211-1.638-.211-1.806 0-8.451 4.954-14.337 11.137-14.337 2.456 0 4.107 1.059 5.335 2.753l1.525-11.052h10.247l-3.26 23.29c-.207 2.036.519 2.82 4.502.736.619-.674.129-1.373.129-1.39 0-8.281 4.684-14.337 10.867-14.337 2.455 0 4.107 1.059 5.335 2.753l.297-2.203h10.661l-2.33 14.441c-.328 2.416.688 1.947 2.255 1.566zm-43.107-8.596c-1.99 0-3.557 2.033-3.557 4.362 0 1.778.931 3.176 2.498 3.176 1.948 0 3.557-2.033 3.557-4.362 0-1.778-.973-3.176-2.498-3.176zm29.344 0c-1.99 0-2.962 2.033-2.962 4.362 0 1.778.337 3.176 1.904 3.176 1.948 0 3.557-2.033 3.557-4.362 0-1.778-.974-3.176-2.499-3.176z"/>
</svg>
